<?xml version="1.0" encoding="utf-8"?><!-- Uploaded to: SVG Repo, www.svgrepo.com, Generator: SVG Repo Mixer Tools -->
<svg width="800px" height="800px" viewBox="0 0 16 16" fill="none" xmlns="http://www.w3.org/2000/svg">
<path d="M5.13984 4.72563C5.94742 4.3112 6.5 3.47013 6.5 2.5C6.5 1.11929 5.38071 0 4 0C2.61929 0 1.5 1.11929 1.5 2.5C1.5 3.52516 2.11705 4.4062 3 4.79198V11.208C2.11705 11.5938 1.5 12.4748 1.5 13.5C1.5 14.8807 2.61929 16 4 16C5.38071 16 6.5 14.8807 6.5 13.5C6.5 12.4748 5.88295 11.5938 5 11.208V7.41421L7.08579 9.5H9.70802C10.0938 10.383 10.9748 11 12 11C13.3807 11 14.5 9.88071 14.5 8.5C14.5 7.11929 13.3807 6 12 6C10.9748 6 10.0938 6.61705 9.70802 7.5H7.91421L5.13984 4.72563Z" fill="#000000"/>
</svg>